<svg width="64" height="64" viewBox="0 0 512 512" fill="none" xmlns="http://www.w3.org/2000/svg">
<g clip-path="url(#clip0_422_323)">
<rect width="512" height="512" fill="#ECECEC"/>
<path fill-rule="evenodd" clip-rule="evenodd" d="M277.986 209.816V139.535C277.986 135.181 275.662 130.592 271.014 125.767C266.367 120.825 261.362 117.236 256 115L219 135.651V143.594C229.01 145.477 234.014 153.773 234.014 168.482V191.101L242.923 180.461L277.986 209.816ZM277.986 230.684V277.375L245.311 305.424L234.014 292.264V255.815L235.934 254.167L234.014 252.559V216.026L244.92 203L277.986 230.684ZM234.014 316.828L243.592 327.986L277.986 298.461V339.518C277.986 354.109 282.99 362.405 293 364.406V372.349L256 393C250.638 390.882 245.633 387.352 240.986 382.41C236.338 377.467 234.014 372.819 234.014 368.465V316.828Z" fill="#342D48"/>
<path fill-rule="evenodd" clip-rule="evenodd" d="M244.92 203L305.521 253.737L245.311 305.424L216 271.279L235.934 254.166L216.032 237.504L244.92 203Z" fill="#342D48"/>
<path d="M201.188 82.5346V282.518C201.188 297.109 206.126 305.405 216 307.406V315.349L179.5 336C174.21 333.882 169.273 330.352 164.688 325.41C160.104 320.467 157.812 315.819 157.812 311.465V111.482C157.812 96.7729 152.874 88.477 143 86.5943V78.6514L179.5 58C184.79 60.2358 189.727 63.8248 194.312 68.767C198.896 73.5915 201.188 78.1807 201.188 82.5346Z" fill="#342D48"/>
<path d="M354.188 197.535V397.518C354.188 412.109 359.126 420.405 369 422.406V430.349L332.5 451C327.21 448.882 322.273 445.352 317.688 440.41C313.104 435.467 310.812 430.819 310.812 426.465V226.482C310.812 211.773 305.874 203.477 296 201.594V193.651L332.5 173C337.79 175.236 342.727 178.825 347.312 183.767C351.896 188.592 354.188 193.181 354.188 197.535Z" fill="#342D48"/>
</g>
<defs>
<clipPath id="clip0_422_323">
<rect width="512" height="512" fill="white"/>
</clipPath>
</defs>
</svg>
