<svg width="64" height="64" viewBox="0 0 512 512" fill="none" xmlns="http://www.w3.org/2000/svg">
<rect width="512" height="512" fill="#ECECEC"/>
<path d="M201.188 82.5346V282.518C201.188 297.109 206.126 305.405 216 307.406V315.349L179.5 336C174.21 333.882 169.273 330.352 164.688 325.41C160.104 320.467 157.812 315.819 157.812 311.465V111.482C157.812 96.7729 152.874 88.477 143 86.5943V78.6514L179.5 58C184.79 60.2358 189.727 63.8248 194.312 68.767C198.896 73.5915 201.188 78.1807 201.188 82.5346Z" fill="#342D48"/>
<path d="M277.986 139.535V339.518C277.986 354.109 282.99 362.405 293 364.406V372.349L256 393C250.638 390.882 245.633 387.352 240.986 382.41C236.338 377.467 234.014 372.819 234.014 368.465V168.482C234.014 153.773 229.01 145.477 219 143.594V135.651L256 115C261.362 117.236 266.367 120.825 271.014 125.767C275.662 130.592 277.986 135.181 277.986 139.535Z" fill="#342D48"/>
<path d="M354.188 197.535V397.518C354.188 412.109 359.126 420.405 369 422.406V430.349L332.5 451C327.21 448.882 322.273 445.352 317.688 440.41C313.104 435.467 310.812 430.819 310.812 426.465V226.482C310.812 211.773 305.874 203.477 296 201.594V193.651L332.5 173C337.79 175.236 342.727 178.825 347.312 183.767C351.896 188.592 354.188 193.181 354.188 197.535Z" fill="#342D48"/>
<path fill-rule="evenodd" clip-rule="evenodd" d="M117.192 361.304L177.793 412.042L117.583 463.728L88.2721 429.583L108.207 412.471L88.3043 395.808L117.192 361.304Z" fill="#342D48"/>
</svg>
